<svg width="540" height="264" viewBox="0 0 540 264" fill="none" xmlns="http://www.w3.org/2000/svg">
<path d="M146.582 121.072C143.302 133.971 132.241 142.388 118.393 142.531H118.023C100.499 142.531 87.7753 130.256 87.7753 113.342C87.7753 96.2929 100.246 84.3875 118.081 84.3875C132.247 84.3875 143.081 92.3569 146.367 105.198C146.445 105.516 146.374 105.847 146.172 106.113C145.971 106.38 145.653 106.529 145.322 106.529H131.273C130.844 106.529 130.428 106.308 130.26 105.977C127.928 101.502 123.238 98.7286 118.016 98.7286C110.021 98.7286 104.221 104.905 104.221 113.414C104.221 118.597 106.371 123.105 110.125 125.768C113.892 128.437 118.737 128.95 123.764 127.19C126.577 126.203 128.85 123.858 130.331 120.416C130.506 120 130.857 119.747 131.247 119.747H145.542C145.867 119.747 146.185 119.896 146.387 120.162C146.588 120.422 146.66 120.753 146.582 121.072Z" fill="white"/>
<path d="M211.961 86.2581H201.186C200.634 86.2581 200.14 86.5829 199.913 87.0765L199.666 87.6156C199.296 88.434 198.594 89.038 197.73 89.2848C196.854 89.5316 195.912 89.3822 195.139 88.8691C190.911 86.0503 185.87 84.5629 180.564 84.5629C163.683 84.5629 151.895 96.4879 151.895 113.57C151.895 130.496 163.95 142.778 180.564 142.778C185.76 142.778 190.703 141.356 194.866 138.647C195.646 138.141 196.613 138.004 197.497 138.277C198.36 138.543 199.062 139.173 199.406 140.011C199.627 140.537 200.134 140.875 200.705 140.875H211.961C212.734 140.875 213.364 140.252 213.364 139.479V87.6676C213.371 86.8881 212.734 86.2581 211.961 86.2581ZM183.162 127.274C175.92 127.274 170.289 121.994 169.769 114.719C169.477 110.628 170.971 106.646 173.861 103.814C176.693 101.054 180.583 99.6769 184.539 100.047C191.638 100.716 196.594 106.289 196.594 113.615C196.594 121.409 190.82 127.274 183.162 127.274Z" fill="white"/>
<path d="M254.328 84.5629C250.594 84.5629 247.054 85.2904 243.787 86.7453C242.845 87.1609 241.773 87.07 240.916 86.5049C240.039 85.9333 239.52 84.9656 239.52 83.9199V67.4029C239.52 66.63 238.89 66 238.117 66H223.425C222.652 66 222.028 66.63 222.028 67.4029V139.537C222.028 140.31 222.652 140.934 223.425 140.934H234.077C234.629 140.934 235.142 140.609 235.363 140.089L235.48 139.836C235.837 138.998 236.551 138.388 237.415 138.134C237.708 138.056 237.993 138.011 238.286 138.011C238.903 138.011 239.507 138.193 240.033 138.55C244.183 141.317 249.126 142.785 254.348 142.785C271.274 142.785 283.089 130.814 283.089 113.674C283.069 96.5333 271.248 84.5629 254.328 84.5629ZM251.737 127.274C244.086 127.274 238.312 121.422 238.312 113.661C238.312 105.867 244.086 99.9952 251.737 99.9952C259.401 99.9952 265.175 105.867 265.175 113.661C265.169 121.422 259.395 127.274 251.737 127.274Z" fill="#CBA87F"/>
<path d="M355.956 127.021V139.537C355.956 140.31 355.333 140.934 354.56 140.934H343.46C331.451 140.934 324.28 133.731 324.28 121.656V102.652C324.28 100.963 322.903 99.5859 321.214 99.5859H315.382C314.609 99.5859 313.985 98.9624 313.985 98.1895V96.7736C313.985 96.4164 314.115 96.0721 314.362 95.8188L338.309 70.3192C338.576 70.0399 338.952 69.871 339.336 69.871H340.108C340.881 69.871 341.511 70.501 341.511 71.2739V83.2574C341.511 84.9461 342.882 86.323 344.577 86.323H354.242C355.015 86.323 355.645 86.9466 355.645 87.7195V98.183C355.645 98.9559 355.015 99.5794 354.242 99.5794H345.071C343.376 99.5794 341.992 100.956 341.992 102.645V118.324C341.992 122.825 344.811 125.625 349.357 125.625H354.56C355.333 125.625 355.956 126.248 355.956 127.021Z" fill="#CBA87F"/>
<path d="M421.849 86.2581H411.074C410.522 86.2581 410.021 86.5829 409.788 87.0765L409.547 87.6156C409.171 88.434 408.469 89.038 407.612 89.2848C406.735 89.5316 405.787 89.3822 405.02 88.8691C400.792 86.0503 395.752 84.5629 390.445 84.5629C373.565 84.5629 361.763 96.4879 361.763 113.57C361.763 130.496 373.831 142.778 390.445 142.778C395.641 142.778 400.578 141.356 404.741 138.647C405.533 138.141 406.488 138.004 407.378 138.277C408.242 138.543 408.93 139.173 409.287 140.011C409.508 140.537 410.015 140.875 410.58 140.875H421.842C422.615 140.875 423.239 140.252 423.239 139.479V87.6676C423.245 86.8881 422.622 86.2581 421.849 86.2581ZM393.05 127.274C385.808 127.274 380.177 121.994 379.657 114.719C379.365 110.628 380.859 106.646 383.749 103.814C386.581 101.054 390.471 99.6769 394.427 100.047C401.526 100.716 406.482 106.289 406.482 113.615C406.482 121.409 400.707 127.274 393.05 127.274Z" fill="white"/>
<path d="M449.765 70.8258V139.531C449.765 140.304 449.135 140.927 448.362 140.927H433.449C432.676 140.927 432.053 140.304 432.053 139.531V87.4597C432.053 87.109 432.176 86.7712 432.404 86.5179L447.316 69.8906C447.621 69.5463 448.005 69.4164 448.342 69.4164C448.524 69.4164 448.713 69.4489 448.862 69.5138C449.304 69.6827 449.765 70.1179 449.765 70.8258Z" fill="white"/>
<path d="M307.997 85.4852V139.537C307.997 140.31 307.374 140.934 306.601 140.934H291.688C290.915 140.934 290.285 140.31 290.285 139.537V103.399C290.285 103.048 290.415 102.71 290.642 102.457L303.561 88.0443L306.406 84.8746C306.795 84.446 307.276 84.5824 307.419 84.6343C307.549 84.6863 307.997 84.8941 307.997 85.4852Z" fill="#CBA87F"/>
<path d="M307.776 72.7549L291.707 90.7137C291.253 91.2139 290.688 91.058 290.532 90.9865C290.376 90.9281 289.843 90.6683 289.843 89.9928V73.7876C289.843 72.625 291.207 71.4494 292.181 71.4494H307.198C307.666 71.4494 307.854 71.8001 307.913 71.904C307.952 72.0209 308.094 72.4041 307.776 72.7549Z" fill="white"/>
<g clip-path="url(#clip0)">
<path d="M107.558 185.605L105.37 183.395C104.76 183.96 104.142 184.407 103.517 184.734C102.907 185.061 102.156 185.225 101.263 185.225C100.593 185.225 99.9756 185.099 99.4101 184.846C98.8595 184.578 98.3833 184.221 97.9815 183.774C97.5946 183.328 97.2895 182.807 97.0663 182.212C96.843 181.616 96.7314 180.984 96.7314 180.314V180.27C96.7314 179.6 96.843 178.975 97.0663 178.394C97.2895 177.799 97.602 177.278 98.0038 176.832C98.4056 176.385 98.8818 176.036 99.4324 175.783C99.9979 175.53 100.608 175.403 101.263 175.403C102.052 175.403 102.758 175.56 103.384 175.872C104.023 176.185 104.648 176.616 105.259 177.167L107.446 174.644C107.089 174.287 106.702 173.96 106.285 173.662C105.869 173.365 105.415 173.112 104.924 172.903C104.433 172.695 103.882 172.531 103.272 172.412C102.677 172.293 102.014 172.234 101.285 172.234C100.08 172.234 98.9786 172.449 97.9815 172.881C96.9844 173.298 96.1287 173.878 95.4144 174.622C94.7001 175.351 94.142 176.207 93.7402 177.189C93.3384 178.156 93.1375 179.198 93.1375 180.314V180.359C93.1375 181.475 93.3384 182.524 93.7402 183.506C94.142 184.488 94.7001 185.344 95.4144 186.073C96.1287 186.788 96.977 187.353 97.9592 187.77C98.9414 188.187 100.005 188.395 101.151 188.395C101.91 188.395 102.595 188.328 103.205 188.194C103.815 188.075 104.373 187.896 104.879 187.658C105.4 187.405 105.876 187.108 106.308 186.765C106.739 186.423 107.156 186.036 107.558 185.605ZM123.206 188.127L119.389 182.546C120.386 182.174 121.189 181.594 121.8 180.805C122.425 180.002 122.737 178.967 122.737 177.702V177.658C122.737 176.036 122.216 174.771 121.175 173.863C120.148 172.955 118.704 172.501 116.844 172.501H109.701V188.127H113.139V183.127H115.84L119.188 188.127H123.206ZM119.255 177.881C119.255 178.551 119.024 179.086 118.563 179.488C118.116 179.89 117.469 180.091 116.621 180.091H113.139V175.604H116.554C117.402 175.604 118.064 175.79 118.541 176.162C119.017 176.534 119.255 177.092 119.255 177.836V177.881ZM139.063 172.501H135.157L131.362 178.774L127.634 172.501H123.616L129.621 181.966V188.127H133.059V181.899L139.063 172.501ZM152.96 177.948V177.903C152.96 177.1 152.819 176.371 152.536 175.716C152.268 175.046 151.874 174.473 151.353 173.997C150.847 173.521 150.222 173.156 149.478 172.903C148.749 172.635 147.915 172.501 146.978 172.501H140.594V188.127H144.031V183.439H146.643C147.521 183.439 148.339 183.328 149.098 183.105C149.872 182.866 150.542 182.517 151.107 182.055C151.688 181.594 152.142 181.021 152.469 180.337C152.796 179.652 152.96 178.856 152.96 177.948ZM149.478 178.015C149.478 178.685 149.24 179.25 148.764 179.712C148.287 180.158 147.618 180.381 146.754 180.381H144.031V175.604H146.688C147.551 175.604 148.228 175.805 148.719 176.207C149.225 176.609 149.478 177.197 149.478 177.97V178.015ZM166.726 175.671V172.501H153.779V175.671H158.534V188.127H161.972V175.671H166.726ZM184.677 180.314V180.27C184.677 179.153 184.469 178.112 184.052 177.144C183.65 176.162 183.077 175.314 182.333 174.6C181.604 173.87 180.733 173.298 179.722 172.881C178.71 172.449 177.601 172.234 176.395 172.234C175.19 172.234 174.074 172.449 173.047 172.881C172.035 173.298 171.157 173.878 170.413 174.622C169.684 175.351 169.111 176.207 168.694 177.189C168.278 178.156 168.069 179.198 168.069 180.314V180.359C168.069 181.475 168.27 182.524 168.672 183.506C169.089 184.474 169.662 185.322 170.391 186.051C171.135 186.765 172.013 187.338 173.025 187.77C174.037 188.187 175.145 188.395 176.351 188.395C177.556 188.395 178.665 188.187 179.677 187.77C180.704 187.338 181.582 186.758 182.311 186.029C183.055 185.285 183.635 184.429 184.052 183.462C184.469 182.479 184.677 181.43 184.677 180.314ZM181.083 180.359C181.083 181.029 180.964 181.661 180.726 182.256C180.503 182.837 180.183 183.35 179.766 183.796C179.364 184.243 178.873 184.593 178.293 184.846C177.712 185.099 177.08 185.225 176.395 185.225C175.696 185.225 175.056 185.099 174.476 184.846C173.91 184.578 173.412 184.221 172.98 183.774C172.563 183.328 172.236 182.807 171.998 182.212C171.775 181.616 171.663 180.984 171.663 180.314V180.27C171.663 179.6 171.775 178.975 171.998 178.394C172.236 177.799 172.556 177.278 172.958 176.832C173.375 176.385 173.866 176.036 174.431 175.783C175.011 175.53 175.651 175.403 176.351 175.403C177.035 175.403 177.668 175.537 178.248 175.805C178.829 176.058 179.327 176.408 179.744 176.854C180.175 177.301 180.503 177.822 180.726 178.417C180.964 179.012 181.083 179.645 181.083 180.314V180.359ZM190.243 188.127V184.555H186.627V188.127H190.243ZM221.481 172.501H217.887L214.65 183.082L211.145 172.457H208.199L204.694 183.082L201.457 172.501H197.774L203.109 188.239H206.1L209.627 178.015L213.154 188.239H216.146L221.481 172.501ZM227.012 188.127V172.501H223.574V188.127H227.012ZM242.139 175.671V172.501H229.192V175.671H233.947V188.127H237.384V175.671H242.139ZM257.389 188.127V172.501H253.951V178.685H247.612V172.501H244.174V188.127H247.612V181.854H253.951V188.127H257.389ZM276.441 180.314V180.27C276.441 179.153 276.233 178.112 275.816 177.144C275.414 176.162 274.841 175.314 274.097 174.6C273.368 173.87 272.497 173.298 271.485 172.881C270.473 172.449 269.365 172.234 268.159 172.234C266.954 172.234 265.838 172.449 264.811 172.881C263.799 173.298 262.921 173.878 262.177 174.622C261.448 175.351 260.875 176.207 260.458 177.189C260.041 178.156 259.833 179.198 259.833 180.314V180.359C259.833 181.475 260.034 182.524 260.436 183.506C260.852 184.474 261.425 185.322 262.155 186.051C262.899 186.765 263.777 187.338 264.789 187.77C265.801 188.187 266.909 188.395 268.115 188.395C269.32 188.395 270.429 188.187 271.441 187.77C272.468 187.338 273.346 186.758 274.075 186.029C274.819 185.285 275.399 184.429 275.816 183.462C276.233 182.479 276.441 181.43 276.441 180.314ZM272.847 180.359C272.847 181.029 272.728 181.661 272.49 182.256C272.267 182.837 271.947 183.35 271.53 183.796C271.128 184.243 270.637 184.593 270.057 184.846C269.476 185.099 268.844 185.225 268.159 185.225C267.46 185.225 266.82 185.099 266.24 184.846C265.674 184.578 265.176 184.221 264.744 183.774C264.327 183.328 264 182.807 263.762 182.212C263.539 181.616 263.427 180.984 263.427 180.314V180.27C263.427 179.6 263.539 178.975 263.762 178.394C264 177.799 264.32 177.278 264.722 176.832C265.138 176.385 265.629 176.036 266.195 175.783C266.775 175.53 267.415 175.403 268.115 175.403C268.799 175.403 269.432 175.537 270.012 175.805C270.592 176.058 271.091 176.408 271.508 176.854C271.939 177.301 272.267 177.822 272.49 178.417C272.728 179.012 272.847 179.645 272.847 180.314V180.359ZM292.253 181.319V172.501H288.815V181.453C288.815 182.703 288.517 183.64 287.922 184.265C287.327 184.89 286.501 185.203 285.444 185.203C284.388 185.203 283.562 184.883 282.967 184.243C282.371 183.588 282.074 182.621 282.074 181.341V172.501H278.636V181.43C278.636 183.737 279.239 185.471 280.444 186.631C281.65 187.792 283.301 188.373 285.4 188.373C286.441 188.373 287.386 188.231 288.235 187.948C289.083 187.651 289.805 187.212 290.4 186.631C290.995 186.036 291.449 185.3 291.762 184.422C292.089 183.544 292.253 182.509 292.253 181.319ZM306.976 175.671V172.501H294.029V175.671H298.784V188.127H302.222V175.671H306.976ZM326.926 175.671V172.501H313.979V175.671H318.733V188.127H322.171V175.671H326.926ZM342.175 188.127V172.501H338.738V178.685H332.398V172.501H328.961V188.127H332.398V181.854H338.738V188.127H342.175ZM357.209 188.127V185.069H348.727V181.787H356.093V178.729H348.727V175.56H357.098V172.501H345.312V188.127H357.209ZM379.469 185.605L377.281 183.395C376.671 183.96 376.054 184.407 375.428 184.734C374.818 185.061 374.067 185.225 373.174 185.225C372.504 185.225 371.887 185.099 371.321 184.846C370.771 184.578 370.294 184.221 369.893 183.774C369.506 183.328 369.201 182.807 368.977 182.212C368.754 181.616 368.642 180.984 368.642 180.314V180.27C368.642 179.6 368.754 178.975 368.977 178.394C369.201 177.799 369.513 177.278 369.915 176.832C370.317 176.385 370.793 176.036 371.343 175.783C371.909 175.53 372.519 175.403 373.174 175.403C373.963 175.403 374.67 175.56 375.295 175.872C375.934 176.185 376.559 176.616 377.17 177.167L379.357 174.644C379 174.287 378.613 173.96 378.196 173.662C377.78 173.365 377.326 173.112 376.835 172.903C376.344 172.695 375.793 172.531 375.183 172.412C374.588 172.293 373.925 172.234 373.196 172.234C371.991 172.234 370.89 172.449 369.893 172.881C368.895 173.298 368.04 173.878 367.325 174.622C366.611 175.351 366.053 176.207 365.651 177.189C365.249 178.156 365.049 179.198 365.049 180.314V180.359C365.049 181.475 365.249 182.524 365.651 183.506C366.053 184.488 366.611 185.344 367.325 186.073C368.04 186.788 368.888 187.353 369.87 187.77C370.852 188.187 371.916 188.395 373.062 188.395C373.821 188.395 374.506 188.328 375.116 188.194C375.726 188.075 376.284 187.896 376.79 187.658C377.311 187.405 377.787 187.108 378.219 186.765C378.65 186.423 379.067 186.036 379.469 185.605ZM395.117 188.127L391.3 182.546C392.297 182.174 393.101 181.594 393.711 180.805C394.336 180.002 394.648 178.967 394.648 177.702V177.658C394.648 176.036 394.127 174.771 393.086 173.863C392.059 172.955 390.615 172.501 388.755 172.501H381.612V188.127H385.05V183.127H387.751L391.099 188.127H395.117ZM391.166 177.881C391.166 178.551 390.935 179.086 390.474 179.488C390.028 179.89 389.38 180.091 388.532 180.091H385.05V175.604H388.465C389.313 175.604 389.975 175.79 390.452 176.162C390.928 176.534 391.166 177.092 391.166 177.836V177.881ZM412.358 188.127L405.662 172.39H402.492L395.795 188.127H399.3L400.728 184.622H407.336L408.765 188.127H412.358ZM406.108 181.587H401.956L404.032 176.519L406.108 181.587ZM426.706 188.127V185.114H418.112L426.706 175.113V172.501H413.96V175.515H422.287L413.693 185.515V188.127H426.706ZM443.197 172.501H439.29L435.496 178.774L431.768 172.501H427.75L433.754 181.966V188.127H437.192V181.899L443.197 172.501ZM447.852 188.127V184.555H444.236V188.127H447.852Z" fill="white"/>
</g>
<defs>
<clipPath id="clip0">
<rect width="458.623" height="26.7778" fill="white" transform="translate(40.2706 171.127)"/>
</clipPath>
</defs>
</svg>
